<svg xmlns="http://www.w3.org/2000/svg" version="1.1" xmlns:xlink="http://www.w3.org/1999/xlink" xmlns:svgjs="http://svgjs.dev/svgjs" width="1500" height="771" viewBox="0 0 1500 771"><g transform="matrix(1,0,0,1,0.5269062208808464,0)"><svg viewBox="0 0 389 200" data-background-color="#dedede" preserveAspectRatio="xMidYMid meet" height="771" width="1500" xmlns="http://www.w3.org/2000/svg" xmlns:xlink="http://www.w3.org/1999/xlink"><g id="tight-bounds" transform="matrix(1,0,0,1,-0.13664434661509972,0)"><svg viewBox="0 0 389.2732886932302 200" height="200" width="389.2732886932302"><g><svg viewBox="0 0 391.2196551366963 200.99999999999997" height="200" width="389.2732886932302"><g><rect width="8.48290419703264" height="200.99999999999997" x="151.43029436201778" y="0" fill="#374151" opacity="1" stroke-width="0" stroke="transparent" fill-opacity="1" class="rect-qz-0" data-fill-palette-color="primary" rx="1%" id="qz-0" data-palette-color="#374151"></rect></g><g transform="matrix(1,0,0,1,182.11975404866465,0.4999999999999858)"><svg viewBox="0 0 209.09990108803163 200" height="200" width="209.09990108803163"><g id="textblocktransform"><svg viewBox="0 0 209.09990108803163 200" height="200" width="209.09990108803163" id="textblock"><g><svg viewBox="0 0 209.09990108803163 200" height="200" width="209.09990108803163"><g transform="matrix(1,0,0,1,0,0)"><svg width="209.09990108803163" viewBox="-1.850000000000003 -46.00000000000001 105.70000000000005 97.80000000000001" height="200" data-palette-color="#374151"><svg></svg><svg></svg><g class="wordmark-text-0" data-fill-palette-color="primary" id="text-0"><path d="M-1.7-3.45v0c0.533-1.333 1.293-2.883 2.28-4.65 0.98-1.767 1.837-3.2 2.57-4.3v0l1.1-1.6c0.467-0.667 0.933-1 1.4-1v0c0.367 0 0.55 0.183 0.55 0.55v0l-0.15 0.5c-1.2 3.033-1.8 5.65-1.8 7.85v0c0 1.767 0.393 3.207 1.18 4.32 0.78 1.12 2.003 1.68 3.67 1.68v0c2.5 0 4.517-1.093 6.05-3.28 1.533-2.18 2.3-4.537 2.3-7.07v0c0-2.167-0.74-5.26-2.22-9.28-1.487-4.013-2.23-6.737-2.23-8.17v0c0-3.1 1.327-5.593 3.98-7.48 2.647-1.88 5.553-2.82 8.72-2.82v0c0.567 0 1.127 0.033 1.68 0.1 0.547 0.067 1.153 0.177 1.82 0.33 0.667 0.147 1.2 0.387 1.6 0.72 0.4 0.333 0.6 0.75 0.6 1.25v0c0 0.667-0.467 1.8-1.4 3.4-0.933 1.6-1.717 2.817-2.35 3.65v0c-0.233 0.167-0.433 0.25-0.6 0.25v0c-0.233 0-0.35-0.2-0.35-0.6v0c0-0.933 0.1-2.2 0.3-3.8v0c0-2.6-1-3.9-3-3.9v0c-1.7 0-3.14 0.583-4.32 1.75-1.187 1.167-1.78 2.583-1.78 4.25v0c0 2.2 0.777 5.267 2.33 9.2 1.547 3.933 2.32 6.967 2.32 9.1v0c0 4-1.577 7.29-4.73 9.87-3.147 2.587-6.687 3.88-10.62 3.88v0c-0.667 0-1.467-0.067-2.4-0.2-0.933-0.133-1.917-0.34-2.95-0.62-1.033-0.287-1.91-0.707-2.63-1.26-0.713-0.547-1.07-1.17-1.07-1.87v0c0-0.267 0.05-0.517 0.15-0.75zM36.9-3.15v0c-2.767 2.533-4.667 3.8-5.7 3.8v0c-0.467 0-0.7-0.267-0.7-0.8v0c0-0.667 0.293-1.683 0.88-3.05 0.58-1.367 1.17-2.567 1.77-3.6v0l0.9-1.55c0.133-0.233 0.2-0.383 0.2-0.45 0-0.067-0.033-0.1-0.1-0.1v0c-0.133 0-0.383 0.183-0.75 0.55v0c-1 1.1-2.14 2.273-3.42 3.52-1.287 1.253-2.33 2.23-3.13 2.93v0l-1.15 1c-1.3 1-2.3 1.5-3 1.5v0c-0.733 0-1.1-0.567-1.1-1.7v0c0-0.567 0.16-1.433 0.48-2.6 0.313-1.167 0.553-1.95 0.72-2.35v0c0.767-1.867 1.727-3.683 2.88-5.45 1.147-1.767 2.503-3.457 4.07-5.07 1.567-1.62 3.393-2.93 5.48-3.93 2.08-1 4.237-1.5 6.47-1.5v0c1.867 0 2.8 0.283 2.8 0.85v0c0 0.333-0.417 0.5-1.25 0.5v0c-3.067 0-5.94 1.307-8.62 3.92-2.687 2.62-4.863 5.63-6.53 9.03v0c-0.467 0.933-0.7 1.717-0.7 2.35v0c0 0.367 0.117 0.55 0.35 0.55v0c0.4 0 0.917-0.283 1.55-0.85v0c0.4-0.367 0.943-0.85 1.63-1.45 0.68-0.6 1.787-1.75 3.32-3.45 1.533-1.7 2.75-3.283 3.65-4.75v0c0.133-0.267 0.343-0.583 0.63-0.95 0.28-0.367 0.82-0.86 1.62-1.48 0.8-0.613 1.6-0.92 2.4-0.92v0c0.433 0 0.65 0.117 0.65 0.35v0c0 0.067-0.05 0.183-0.15 0.35v0c-0.133 0.267-0.507 0.933-1.12 2-0.62 1.067-1.197 2.073-1.73 3.02-0.533 0.953-1.1 1.987-1.7 3.1-0.6 1.12-1.073 2.08-1.42 2.88-0.353 0.8-0.53 1.333-0.53 1.6v0c0 0.2 0.083 0.3 0.25 0.3v0c0.5 0 1.717-0.967 3.65-2.9v0c1.467-1.533 3.183-3.417 5.15-5.65v0c0.1-0.1 0.183-0.15 0.25-0.15 0.067 0 0.1 0.067 0.1 0.2v0c0 0.633-0.25 1.25-0.75 1.85v0c-3.267 3.633-6.033 6.483-8.3 8.55zM55.4-24.35v0c2.367-1.667 4.493-3.56 6.38-5.68 1.88-2.113 3.313-4.063 4.3-5.85 0.98-1.78 1.72-3.32 2.22-4.62 0.5-1.3 0.75-2.233 0.75-2.8v0c0-0.333-0.117-0.5-0.35-0.5v0c-0.467 0-1.033 0.333-1.7 1v0c-1.267 1.267-2.7 3.1-4.3 5.5-1.6 2.4-2.89 4.457-3.87 6.17-0.987 1.72-2.263 4.013-3.83 6.88v0c0.133 0 0.267-0.033 0.4-0.1zM50.05-7.55v0c1.4-1.4 3.25-3.417 5.55-6.05v0c0.1-0.1 0.183-0.15 0.25-0.15 0.067 0 0.1 0.067 0.1 0.2v0c0 0.633-0.25 1.25-0.75 1.85v0c-2.467 2.733-4.65 5.017-6.55 6.85v0c-4.167 3.933-6.817 5.9-7.95 5.9v0c-0.5 0-0.75-0.35-0.75-1.05v0c0-0.367 0.043-0.767 0.13-1.2 0.08-0.433 0.22-0.91 0.42-1.43 0.2-0.513 0.373-0.947 0.52-1.3 0.153-0.347 0.373-0.847 0.66-1.5 0.28-0.647 0.47-1.087 0.57-1.32v0c0.933-2.1 3.8-7.633 8.6-16.6v0c6.567-11.967 12.6-19.317 18.1-22.05v0c0.8-0.4 1.6-0.6 2.4-0.6v0c0.933 0 1.4 0.433 1.4 1.3v0c0 2-0.683 4.19-2.05 6.57-1.367 2.387-3.033 4.58-5 6.58-1.967 2-3.893 3.75-5.78 5.25-1.88 1.5-3.503 2.633-4.87 3.4v0c-0.2 0.067-0.383 0.217-0.55 0.45v0c-1.467 2.367-2.9 4.907-4.3 7.62-1.4 2.72-2.45 4.863-3.15 6.43v0l-1 2.3c-0.167 0.5-0.25 0.833-0.25 1v0c0 0.3 0.117 0.45 0.35 0.45v0c0.667 0 1.967-0.967 3.9-2.9zM64.6-16.95v0c0.4-0.833 0.6-1.567 0.6-2.2v0c0-0.533-0.167-0.8-0.5-0.8v0c-0.2 0-0.423 0.057-0.67 0.17-0.253 0.12-0.447 0.247-0.58 0.38v0l-0.25 0.2c-1.033 0.9-2.323 2.54-3.87 4.92-1.553 2.387-2.33 3.913-2.33 4.58v0c0 0.133 0.033 0.2 0.1 0.2v0c0.2 0 0.643-0.167 1.33-0.5 0.68-0.333 1.663-1.117 2.95-2.35 1.28-1.233 2.353-2.767 3.22-4.6zM62.35-5.5v0c1.767-1.633 4.3-4.333 7.6-8.1v0c0.1-0.1 0.183-0.15 0.25-0.15 0.067 0 0.1 0.067 0.1 0.2v0c0 0.633-0.25 1.25-0.75 1.85v0c-2.467 2.733-4.65 5.017-6.55 6.85v0c-1.4 1.4-3.067 2.74-5 4.02-1.933 1.287-3.533 1.93-4.8 1.93v0c-1.533 0-2.3-1.067-2.3-3.2v0c0-3.533 1.31-7.233 3.93-11.1 2.613-3.867 5.637-6.483 9.07-7.85v0c1.433-0.6 2.733-0.9 3.9-0.9v0c1.3 0 1.95 0.517 1.95 1.55v0c0 1.933-1.367 4.15-4.1 6.65-2.733 2.5-5.8 4.4-9.2 5.7v0c-0.133 0.033-0.25 0.15-0.35 0.35v0c-0.5 1.367-0.75 2.583-0.75 3.65v0c0 1.2 0.45 1.8 1.35 1.8v0c1.433 0 3.317-1.083 5.65-3.25z" fill="#374151" fill-rule="nonzero" stroke="none" stroke-width="1" stroke-linecap="butt" stroke-linejoin="miter" stroke-miterlimit="10" stroke-dasharray="" stroke-dashoffset="0" font-family="none" font-weight="none" font-size="none" text-anchor="none" style="mix-blend-mode: normal" data-fill-palette-color="primary" opacity="1"></path><path transform="translate(0,50.55)" d="M-1.7-3.45v0c0.533-1.333 1.293-2.883 2.28-4.65 0.98-1.767 1.837-3.2 2.57-4.3v0l1.1-1.6c0.467-0.667 0.933-1 1.4-1v0c0.367 0 0.55 0.183 0.55 0.55v0l-0.15 0.5c-1.2 3.033-1.8 5.65-1.8 7.85v0c0 1.767 0.393 3.207 1.18 4.32 0.78 1.12 2.003 1.68 3.67 1.68v0c2.5 0 4.517-1.093 6.05-3.28 1.533-2.18 2.3-4.537 2.3-7.07v0c0-2.167-0.74-5.26-2.22-9.28-1.487-4.013-2.23-6.737-2.23-8.17v0c0-3.1 1.327-5.593 3.98-7.48 2.647-1.88 5.553-2.82 8.72-2.82v0c0.567 0 1.127 0.033 1.68 0.1 0.547 0.067 1.153 0.177 1.82 0.33 0.667 0.147 1.2 0.387 1.6 0.72 0.4 0.333 0.6 0.75 0.6 1.25v0c0 0.667-0.467 1.8-1.4 3.4-0.933 1.6-1.717 2.817-2.35 3.65v0c-0.233 0.167-0.433 0.25-0.6 0.25v0c-0.233 0-0.35-0.2-0.35-0.6v0c0-0.933 0.1-2.2 0.3-3.8v0c0-2.6-1-3.9-3-3.9v0c-1.7 0-3.14 0.583-4.32 1.75-1.187 1.167-1.78 2.583-1.78 4.25v0c0 2.2 0.777 5.267 2.33 9.2 1.547 3.933 2.32 6.967 2.32 9.1v0c0 4-1.577 7.29-4.73 9.87-3.147 2.587-6.687 3.88-10.62 3.88v0c-0.667 0-1.467-0.067-2.4-0.2-0.933-0.133-1.917-0.34-2.95-0.62-1.033-0.287-1.91-0.707-2.63-1.26-0.713-0.547-1.07-1.17-1.07-1.87v0c0-0.267 0.05-0.517 0.15-0.75zM36.1-16.95v0c0.4-0.833 0.6-1.567 0.6-2.2v0c0-0.533-0.167-0.8-0.5-0.8v0c-0.2 0-0.423 0.057-0.67 0.17-0.253 0.12-0.447 0.247-0.58 0.38v0l-0.25 0.2c-1.033 0.9-2.323 2.54-3.87 4.92-1.553 2.387-2.33 3.913-2.33 4.58v0c0 0.133 0.033 0.2 0.1 0.2v0c0.2 0 0.643-0.167 1.33-0.5 0.68-0.333 1.663-1.117 2.95-2.35 1.28-1.233 2.353-2.767 3.22-4.6zM33.85-5.5v0c1.767-1.633 4.3-4.333 7.6-8.1v0c0.1-0.1 0.183-0.15 0.25-0.15 0.067 0 0.1 0.067 0.1 0.2v0c0 0.633-0.25 1.25-0.75 1.85v0c-2.467 2.733-4.65 5.017-6.55 6.85v0c-1.4 1.4-3.067 2.74-5 4.02-1.933 1.287-3.533 1.93-4.8 1.93v0c-1.533 0-2.3-1.067-2.3-3.2v0c0-3.533 1.31-7.233 3.93-11.1 2.613-3.867 5.637-6.483 9.07-7.85v0c1.433-0.6 2.733-0.9 3.9-0.9v0c1.3 0 1.95 0.517 1.95 1.55v0c0 1.933-1.367 4.15-4.1 6.65-2.733 2.5-5.8 4.4-9.2 5.7v0c-0.133 0.033-0.25 0.15-0.35 0.35v0c-0.5 1.367-0.75 2.583-0.75 3.65v0c0 1.2 0.45 1.8 1.35 1.8v0c1.433 0 3.317-1.083 5.65-3.25zM50.45-16.95v0c0.4-0.833 0.6-1.567 0.6-2.2v0c0-0.533-0.167-0.8-0.5-0.8v0c-0.2 0-0.423 0.057-0.67 0.17-0.253 0.12-0.447 0.247-0.58 0.38v0l-0.25 0.2c-1.033 0.9-2.323 2.54-3.87 4.92-1.553 2.387-2.33 3.913-2.33 4.58v0c0 0.133 0.033 0.2 0.1 0.2v0c0.2 0 0.643-0.167 1.33-0.5 0.68-0.333 1.663-1.117 2.95-2.35 1.28-1.233 2.353-2.767 3.22-4.6zM48.2-5.5v0c1.767-1.633 4.3-4.333 7.6-8.1v0c0.1-0.1 0.183-0.15 0.25-0.15 0.067 0 0.1 0.067 0.1 0.2v0c0 0.633-0.25 1.25-0.75 1.85v0c-2.467 2.733-4.65 5.017-6.55 6.85v0c-1.4 1.4-3.067 2.74-5 4.02-1.933 1.287-3.533 1.93-4.8 1.93v0c-1.533 0-2.3-1.067-2.3-3.2v0c0-3.533 1.31-7.233 3.93-11.1 2.613-3.867 5.637-6.483 9.07-7.85v0c1.433-0.6 2.733-0.9 3.9-0.9v0c1.3 0 1.95 0.517 1.95 1.55v0c0 1.933-1.367 4.15-4.1 6.65-2.733 2.5-5.8 4.4-9.2 5.7v0c-0.133 0.033-0.25 0.15-0.35 0.35v0c-0.5 1.367-0.75 2.583-0.75 3.65v0c0 1.2 0.45 1.8 1.35 1.8v0c1.433 0 3.317-1.083 5.65-3.25zM68.3-7.55v0c1.4-1.4 3.25-3.417 5.55-6.05v0c0.1-0.1 0.183-0.15 0.25-0.15 0.067 0 0.1 0.067 0.1 0.2v0c0 0.633-0.25 1.25-0.75 1.85v0c-2.467 2.733-4.65 5.017-6.55 6.85v0c-0.167 0.167-0.473 0.473-0.92 0.92-0.453 0.453-0.813 0.803-1.08 1.05-0.267 0.253-0.617 0.587-1.05 1-0.433 0.42-0.8 0.747-1.1 0.98-0.3 0.233-0.623 0.473-0.97 0.72-0.353 0.253-0.67 0.44-0.95 0.56-0.287 0.113-0.53 0.17-0.73 0.17v0c-0.6 0-0.9-0.55-0.9-1.65v0c0-1.2 0.26-2.733 0.78-4.6 0.513-1.867 1.037-3.433 1.57-4.7v0l0.75-1.9c0.033-0.067 0.05-0.133 0.05-0.2 0-0.067-0.033-0.1-0.1-0.1v0l-0.3 0.1c-1.267 1.267-2.573 2.693-3.92 4.28-1.353 1.58-2.38 2.837-3.08 3.77v0l-1.05 1.4c-0.667 1.033-1.44 1.933-2.32 2.7-0.887 0.767-1.563 1.15-2.03 1.15v0c-0.333 0-0.5-0.217-0.5-0.65v0c0-0.633 0.3-1.633 0.9-3 0.6-1.367 1.2-2.583 1.8-3.65v0l0.9-1.6 7.3-13.05c6.567-11.667 11.35-19.4 14.35-23.2v0c1-1.3 1.7-1.95 2.1-1.95v0c0.167 0 0.25 0.133 0.25 0.4v0c0 0.733-0.533 2.167-1.6 4.3v0c-5.233 9.467-8.867 16.017-10.9 19.65v0c-3.967 7.1-6.35 11.317-7.15 12.65v0 0.2c0 0.1 0.033 0.15 0.1 0.15 0.067 0 0.167-0.067 0.3-0.2v0l2.35-2.55c1.6-1.7 3.05-3.2 4.35-4.5 1.3-1.3 2.75-2.577 4.35-3.83 1.6-1.247 2.783-1.87 3.55-1.87v0c0.533 0 0.8 0.4 0.8 1.2v0c0 0.467-0.167 1.183-0.5 2.15-0.333 0.967-0.667 1.45-1 1.45v0c-0.133 0-0.25-0.167-0.35-0.5v0c-0.167-0.833-0.65-1.25-1.45-1.25v0c-1.133 0-2.183 1.073-3.15 3.22-0.967 2.153-1.65 4.237-2.05 6.25-0.4 2.02-0.6 3.38-0.6 4.08v0c0 0.733 0.183 1.1 0.55 1.1v0c0.3 0 0.693-0.193 1.18-0.58 0.48-0.38 1.047-0.903 1.7-1.57 0.647-0.667 1.037-1.067 1.17-1.2zM82.85-16.95v0c0.4-0.833 0.6-1.567 0.6-2.2v0c0-0.533-0.167-0.8-0.5-0.8v0c-0.2 0-0.423 0.057-0.67 0.17-0.253 0.12-0.447 0.247-0.58 0.38v0l-0.25 0.2c-1.033 0.9-2.323 2.54-3.87 4.92-1.553 2.387-2.33 3.913-2.33 4.58v0c0 0.133 0.033 0.2 0.1 0.2v0c0.2 0 0.643-0.167 1.33-0.5 0.68-0.333 1.663-1.117 2.95-2.35 1.28-1.233 2.353-2.767 3.22-4.6zM80.6-5.5v0c1.767-1.633 4.3-4.333 7.6-8.1v0c0.1-0.1 0.183-0.15 0.25-0.15 0.067 0 0.1 0.067 0.1 0.2v0c0 0.633-0.25 1.25-0.75 1.85v0c-2.467 2.733-4.65 5.017-6.55 6.85v0c-1.4 1.4-3.067 2.74-5 4.02-1.933 1.287-3.533 1.93-4.8 1.93v0c-1.533 0-2.3-1.067-2.3-3.2v0c0-3.533 1.31-7.233 3.93-11.1 2.613-3.867 5.637-6.483 9.07-7.85v0c1.433-0.6 2.733-0.9 3.9-0.9v0c1.3 0 1.95 0.517 1.95 1.55v0c0 1.933-1.367 4.15-4.1 6.65-2.733 2.5-5.8 4.4-9.2 5.7v0c-0.133 0.033-0.25 0.15-0.35 0.35v0c-0.5 1.367-0.75 2.583-0.75 3.65v0c0 1.2 0.45 1.8 1.35 1.8v0c1.433 0 3.317-1.083 5.65-3.25zM96-10.35v0c-0.267 0-0.4-0.1-0.4-0.3v0c0-0.1 0.05-0.233 0.15-0.4v0c1.967-3.067 2.95-5.167 2.95-6.3v0c0-0.3-0.117-0.45-0.35-0.45v0c-1 0-3.35 2.267-7.05 6.8v0c-1.1 1.4-2.123 2.85-3.07 4.35-0.953 1.5-1.613 2.65-1.98 3.45v0l-0.6 1.15c-0.4 0.8-1.017 1.543-1.85 2.23-0.833 0.68-1.7 1.02-2.6 1.02v0c-0.467 0-0.7-0.117-0.7-0.35v0c0-0.2 0.143-0.617 0.43-1.25 0.28-0.633 0.62-1.333 1.02-2.1 0.4-0.767 0.8-1.517 1.2-2.25 0.4-0.733 0.733-1.35 1-1.85v0l0.45-0.75 5.25-9.15c2.033-3.833 4.167-5.75 6.4-5.75v0c0.3 0 0.45 0.117 0.45 0.35v0c0 0.3-0.723 1.54-2.17 3.72-1.453 2.187-2.297 3.58-2.53 4.18v0c-0.067 0.2-0.1 0.317-0.1 0.35v0c0 0.067 0.033 0.1 0.1 0.1 0.067 0 0.183-0.083 0.35-0.25v0c2.5-2.833 5.15-5.35 7.95-7.55v0c0.167-0.167 0.533-0.41 1.1-0.73 0.567-0.313 1.067-0.47 1.5-0.47v0c0.633 0 0.95 0.55 0.95 1.65v0c0 1.2-0.4 2.633-1.2 4.3-0.8 1.667-1.883 3.133-3.25 4.4v0l-0.2 0.2c-0.133 0.1-0.273 0.207-0.42 0.32-0.153 0.12-0.347 0.263-0.58 0.43-0.233 0.167-0.467 0.307-0.7 0.42-0.233 0.12-0.483 0.23-0.75 0.33-0.267 0.1-0.517 0.15-0.75 0.15z" fill="#374151" fill-rule="nonzero" stroke="none" stroke-width="1" stroke-linecap="butt" stroke-linejoin="miter" stroke-miterlimit="10" stroke-dasharray="" stroke-dashoffset="0" font-family="none" font-weight="none" font-size="none" text-anchor="none" style="mix-blend-mode: normal" data-fill-palette-color="primary" opacity="1"></path></g></svg></g></svg></g></svg></g></svg></g><g transform="matrix(1,0,0,1,0,35.888130563798214)"><svg viewBox="0 0 129.22373887240354 129.22373887240354" height="129.22373887240354" width="129.22373887240354"><g><svg xmlns="http://www.w3.org/2000/svg" xmlns:xlink="http://www.w3.org/1999/xlink" version="1.1" x="0" y="0" viewBox="68.5 68.5 375 375" enable-background="new 0 0 512 512" xml:space="preserve" height="129.22373887240354" width="129.22373887240354" class="icon-icon-0" data-fill-palette-color="accent" id="icon-0"><path d="M443.5 256v-37.5H406h-56.3V181h37.5V68.5H124.8V181h37.5v37.5H106 68.5V256H106v150H68.5v37.5H106h93.8 112.5H406h37.5V406H406V256H443.5zM162.3 106h187.5v37.5H162.3V106zM199.8 181h112.5v37.5H199.8V181zM237.3 406v-75h37.5v75H237.3zM368.5 406h-56.3V293.5H199.8V406h-56.3V256h225V406z" fill="#374151" data-fill-palette-color="accent"></path></svg></g></svg></g></svg></g><defs></defs></svg><rect width="389.2732886932302" height="200" fill="none" stroke="none" visibility="hidden"></rect></g></svg></g></svg>